<svg xmlns="http://www.w3.org/2000/svg" xmlns:xlink="http://www.w3.org/1999/xlink" viewBox="0 0 570 571.34"><defs><path id="a" d="M289.11 33.42l59.51 183.15h192.57L385.4 329.77l59.51 183.15-155.8-113.19-155.8 113.19 59.51-183.15-155.8-113.2H229.6z"/></defs><use xlink:href="#a" overflow="visible" fill="#D2E3FC"/><clipPath id="b"><use xlink:href="#a" overflow="visible"/></clipPath><path clip-path="url(#b)" fill="#D2E3FC" d="M289.11 33.42l59.51 183.15h192.57L385.4 329.77l59.51 183.15-155.8-113.19-155.8 113.19 59.51-183.15-155.8-113.2H229.6z"/><path fill="#E8F0FE" d="M398.27 459.66H181.33c-12.93 0-23.41-10.48-23.41-23.41V128.87c0-12.93 10.48-23.41 23.41-23.41H344l77.68 77.68v253.1c0 12.94-10.48 23.42-23.41 23.42z"/><path fill="#D2E3FC" d="M421.68 183.14h-54.26c-12.94 0-23.43-10.49-23.43-23.43v-54.26c30.35 30.35 47.36 47.35 77.69 77.69z"/><path d="M225.5 277.47h128.59M225.5 306.59h128.59M225.5 335.72h128.59M225.5 364.85h77.93" fill="none" stroke="#1A73E8" stroke-width="11" stroke-linecap="round" stroke-miterlimit="10"/><path fill="#FFF" d="M10.82 216.52v341.95h547.21V216.52l-16.84.05-155.79 113.2 59.51 183.15-155.8-113.19-155.8 113.19 59.51-183.15-155.8-113.2z"/></svg>
