<svg xmlns="http://www.w3.org/2000/svg" xmlns:xlink="http://www.w3.org/1999/xlink" viewBox="0 0 570 571.34"><path fill="none" stroke="#1A73E8" stroke-width="15" stroke-miterlimit="10" d="M325.39 109.49h-80.78V67.65c0-11.42 9.26-20.68 20.68-20.68h39.42c11.42 0 20.68 9.26 20.68 20.68v41.84z"/><path fill="#E8F0FE" d="M288.68 101.9H108.89l24.33 409.52c.43 7.27 6.94 12.96 14.83 12.96h273.91c7.89 0 14.4-5.69 14.83-12.96l24.33-409.52H288.68z"/><path fill="#D2E3FC" d="M100.85 80.33h368.3v63.54h-368.3z"/><path d="M150.3 170.67l17.9 331.09m44.25-331.09l13.38 331.09M419.7 170.67l-17.9 331.09m-44.25-331.09l-13.38 331.09M285 170.67v331.09" fill="none" stroke="#D2E3FC" stroke-width="11" stroke-linecap="round" stroke-miterlimit="10"/><path fill="#E8F0FE" d="M145.87 495.3h278.26v22.15H145.87z"/></svg>
